<svg xmlns="http://www.w3.org/2000/svg" width="1200" height="1350" viewBox="0 0 1200 1350" fill="none">
  <defs>
    <linearGradient id="fabric" x1="0" y1="0" x2="1" y2="0">
      <stop offset="0" stop-color="#fffaf1" stop-opacity="0.95"/>
      <stop offset="0.35" stop-color="#f8e2d8" stop-opacity="0.72"/>
      <stop offset="0.72" stop-color="#fff8f0" stop-opacity="0.38"/>
      <stop offset="1" stop-color="#ffffff" stop-opacity="0.05"/>
    </linearGradient>
    <filter id="noise" x="-10%" y="-10%" width="120%" height="120%">
      <feTurbulence type="fractalNoise" baseFrequency="0.012 0.075" numOctaves="5" seed="99"/>
      <feColorMatrix type="matrix" values="0 0 0 0 1 0 0 0 0 0.86 0 0 0 0 0.80 0 0 0 0.12 0"/>
      <feBlend mode="screen" in2="SourceGraphic"/>
    </filter>
    <filter id="soft" x="-10%" y="-10%" width="120%" height="120%">
      <feGaussianBlur stdDeviation="0.65"/>
    </filter>
  </defs>
  <path d="M0 0H1020C970 142 1007 297 918 458C854 574 906 796 792 955C682 1109 550 1220 510 1350H0V0Z" fill="url(#fabric)" filter="url(#noise)"/>
  <g stroke-linecap="round" filter="url(#soft)">
    <path d="M902 0C844 188 883 367 790 560C704 738 710 1016 560 1350" stroke="#fff9ef" stroke-opacity="0.62" stroke-width="13"/>
    <path d="M742 0C704 220 735 412 640 626C548 833 510 1110 430 1350" stroke="#e7b6b4" stroke-opacity="0.30" stroke-width="9"/>
    <path d="M566 0C538 242 558 452 486 682C420 896 350 1130 302 1350" stroke="#fffdf8" stroke-opacity="0.30" stroke-width="7"/>
    <path d="M372 0C340 210 370 452 308 704C250 944 210 1160 160 1350" stroke="#e6b2b0" stroke-opacity="0.20" stroke-width="10"/>
  </g>
</svg>
